<?xml version="1.0" encoding="iso-8859-1"?>
<!-- Generator: Adobe Illustrator 19.0.0, SVG Export Plug-In . SVG Version: 6.00 Build 0)  -->
<svg version="1.1" id="Layer_1" xmlns="http://www.w3.org/2000/svg" xmlns:xlink="http://www.w3.org/1999/xlink" x="0px" y="0px"
	 viewBox="0 0 512 512" style="enable-background:new 0 0 512 512;" xml:space="preserve">
<g>
	<g>
		<path d="M132.353,76.534c-10.525,0-20.361,4.229-27.515,11.484c-7.155-7.254-16.99-11.484-27.515-11.484
			c-21.063,0-38.199,17.347-38.199,38.669c0,9.716,2.845,15.473,4.921,19.678l0.128,0.255c8.348,16.911,50.98,52.528,55.814,56.533
			l4.839,4.011l4.849-3.999c4.878-4.021,47.882-39.773,55.882-56.654l0.211-0.445c1.931-4.061,4.849-10.2,4.849-19.379
			C170.617,93.882,153.451,76.534,132.353,76.534z M152.035,128.054l-0.22,0.463c-4.5,9.498-29.406,32.51-46.963,47.377
			c-17.456-14.852-42.293-37.871-47.04-47.487l-0.129-0.262c-1.721-3.486-3.349-6.778-3.349-12.942
			c-0.002-13.157,10.097-23.462,22.989-23.462c8.745,0,16.709,4.816,20.784,12.569l6.732,12.808l6.731-12.808
			c4.074-7.752,12.037-12.568,20.784-12.568c12.929,0,23.056,10.306,23.056,23.462C155.411,120.952,153.694,124.563,152.035,128.054
			z"/>
	</g>
</g>
<g>
	<g>
		<path d="M511.827,385.905c-1.11-26.876-8.178-48.151-21.089-63.283c-14.229-16.676-35.13-25.628-62.122-26.61
			c-6.137-0.223-12.032-0.419-17.72-0.606c-87.527-2.899-123.755-4.098-228.162-79.815l-4.924-4.488l-4.457,4.817
			c-1.753,1.082-17.165,9.511-71.018,9.511c-37.184,0-68.725-10.76-69.035-10.867l-7.603-2.64l-2.204,7.741
			c-0.228,0.801-22.197,78.932-23.433,166.241H0v7.604v7.604v34.352h512v-34.352v-7.604v-7.604H511.827z M411.834,310.653
			c5.227,0.173,10.623,0.354,16.229,0.557c43.371,1.578,66.409,26.696,68.563,74.696H203.834
			c4.865-13.938,19.217-39.591,58.951-39.591h3.499c30.753,0.012,65.644,0.015,93.45-4.588c15.825-2.619,27.706-6.448,36.321-11.706
			C405.686,324.142,410.055,317.044,411.834,310.653z M36.145,231.329c12.22,3.432,37.357,9.31,66.189,9.31
			c45.917,0,66.622-5.86,75.425-9.882c4.49,3.227,8.853,6.309,13.115,9.272l-19.172,23.611l11.806,9.586l19.973-24.598
			c3.581,2.394,7.09,4.699,10.519,6.903l-19.128,23.558l11.806,9.586l20.317-25.021c3.524,2.137,6.967,4.165,10.346,6.102
			l-19.298,23.766l11.806,9.586l21.038-25.908c52.63,27.6,89.569,30.906,144.641,32.898c-4.814,7.629-17.623,13.206-38.275,16.625
			c-26.573,4.398-60.788,4.398-90.964,4.383h-3.502c-34.761,0-53.706,16.666-63.478,30.648c-6.377,9.124-9.703,18.249-11.354,24.151
			h-66.315c-2.004-53.404-43.845-96.785-96.602-101.222C29.199,260.197,33.657,241.199,36.145,231.329z M22.628,299.747
			c45.497,3.26,81.78,40.333,83.791,86.158H15.264C15.712,354.933,18.831,325.149,22.628,299.747z M496.792,420.258H15.208v-19.145
			h481.584V420.258z"/>
	</g>
</g>
<g>
</g>
<g>
</g>
<g>
</g>
<g>
</g>
<g>
</g>
<g>
</g>
<g>
</g>
<g>
</g>
<g>
</g>
<g>
</g>
<g>
</g>
<g>
</g>
<g>
</g>
<g>
</g>
<g>
</g>
</svg>
